<?xml version="1.0" encoding="UTF-8" standalone="no"?><!DOCTYPE svg PUBLIC "-//W3C//DTD SVG 1.1//EN" "http://www.w3.org/Graphics/SVG/1.1/DTD/svg11.dtd"><svg width="100%" height="100%" viewBox="0 0 2000 2000" version="1.1" xmlns="http://www.w3.org/2000/svg" xmlns:xlink="http://www.w3.org/1999/xlink" xml:space="preserve" xmlns:serif="http://www.serif.com/" style="fill-rule:evenodd;clip-rule:evenodd;stroke-linejoin:round;stroke-miterlimit:2;"><path d="M1389.692,547.779c-1.725,-7.857 -1.859,-7.652 -3.435,-15.643c-3.868,-19.613 -4.513,-19.451 -4.843,-21.156c-5.987,-30.95 17.835,-12.588 23.612,-9.027c14.423,8.888 132.748,81.803 180.507,110.74c69.126,41.883 170.533,104.672 170.739,104.842c8.224,6.758 39.866,109.587 44.293,126.535c11.87,45.448 14.351,46.305 10.931,49.587c-0.562,0.539 -0.634,1.609 -1.355,1.903c-3.585,1.462 -3.566,-0.647 -89.712,-35.955c-108.995,-44.673 -109.061,-44.202 -218.154,-88.6c-51.607,-21.003 -68.031,-19.163 -74.717,-50.158c-2.989,-13.854 -27.246,-126.299 -37.866,-173.067Z" style="fill:#bebec0;"/><path d="M1256.182,454.193c4.981,5.931 40.889,201.071 43.618,247.247c0.794,13.438 -14.52,25.414 -27.243,29.809c-21.538,7.44 -38.687,5.801 -101.988,14.829c-84.415,12.039 -90.218,9.879 -101.503,-2.049c-15.792,-16.692 -8.998,-34.584 -14.012,-146.554c-2.013,-44.936 0.391,-49.052 34.237,-68.18c121.59,-68.717 148.478,-97.025 166.891,-75.101Z" style="fill:#bebfc0;"/><g><path d="M899.902,1126.336c2.888,-40.832 0.776,-40.751 0.812,-81.655c0.045,-50.918 2.778,-65.965 -12.982,-60.481c-1.413,0.492 -40.393,16.266 -40.873,16.517c-13.9,7.265 -14.376,5.802 -28.963,11.916c-90.616,37.978 -90.631,37.665 -98.454,41.077c-10.235,4.465 -9.77,5.568 -10.737,5.561c-4.358,-0.036 -3.411,-19.821 -3.462,-55.619c-0.159,-111.934 -3.207,-115.02 6.821,-121.153c33.157,-20.277 51.157,-29.092 55.753,-31.343c7.576,-3.886 17.949,-6.561 32.984,-20.851c13.988,-7.923 14.971,-8.158 16.409,-8.503c12.724,-3.047 64.995,25.29 74.545,22.334c4.009,-1.241 1.862,-3.105 1.411,-74.367c-0.768,-121.531 -10.952,-170.114 22.766,-193.003c25.731,-17.467 65.223,-39.758 71.007,-43.023c66.519,-37.546 64.982,-39.942 131.329,-77.95c92.559,-53.024 132.168,-82.473 150.611,-84.474c30.734,-3.333 39.522,10.043 111.831,56.36c152.479,97.668 151.27,99.274 303.433,197.202c92.252,59.37 94.195,59.837 102.535,83.088c3.891,10.849 37.454,104.419 48.032,135.824c31.792,94.388 36.192,93.483 41.018,127.088c5.31,36.976 36.238,282.814 39.333,307.414c1.731,13.757 5.351,12.059 17.993,17.797c7.538,3.421 6.213,6.593 6.389,72.705c0.19,71.184 2.833,76.022 -12.422,91.826c-17.514,18.145 -39.212,18.97 -42.219,20.273c-11.329,4.908 -11.209,27.768 -30.046,59.709c-31.363,53.18 -57.716,63.096 -117.96,67.66c-77.109,5.841 -116.559,19.401 -161.693,-53.891c-7.172,-11.646 -9.456,-9.666 -23.075,-9.098c-169.934,7.083 -169.845,8.568 -184.629,8.853c-28.865,0.557 -47.633,-27.411 -57.11,-23.876c-8.643,3.225 -6.092,5.778 -10.558,13.861c-40.241,72.847 -78.47,76.281 -153.807,80.447c-37.276,2.061 -76.504,10.62 -106.182,-2.72c-52.585,-23.635 -80.193,-98.566 -83.997,-108.889c-3.054,-8.288 -8.473,-6.092 -72.486,-4.07c-72.754,2.299 -77.215,-1.896 -82.966,11.343c-18.202,41.905 -28.876,50.715 -101.606,44.744c-43.1,-3.538 -43.196,0.3 -86.238,-3.299c-40.732,-3.405 -31.581,-41.57 -53.402,-43.957c-19.607,-2.145 -12.636,10.439 -32.727,39.858c-4.034,5.907 -17.821,26.095 -86.166,23.904c-35.029,-1.123 -34.776,2.687 -69.801,4.055c-58.796,2.297 -66.424,-69.699 -77.145,-74.504c-7.492,-3.357 -131.121,-11.629 -136.685,-14.085c-7.378,-3.256 -6.893,-34.47 -11.975,-41.856c-6.619,-9.621 -69.096,-11.934 -69.713,-11.98c-8.299,-0.617 -8.121,-2.138 -11.159,-9.859l7.174,-3.023c1.874,1.016 2.45,3.695 4.325,4.711c0.368,0.199 7.194,-0.571 7.785,-0.914c0.59,-0.343 0.142,-1.673 0.79,-1.89c1.314,-0.439 2.766,0.312 4.15,0.239c6.993,-0.367 380.911,-125.128 548.932,-179.142c173.4,-55.743 173.163,-57.51 184.806,-57.566c10.847,-0.052 10.578,-1.461 36.799,-11.388c0.144,1.871 1.036,1.767 0.624,8.11c-2.543,39.121 -6.465,161.698 -9.255,209.219c-1.848,31.481 -10.035,55.323 49.825,52.812c12.968,-0.544 10.132,-7.536 10.046,-24.071c-0.812,-154.69 -2.195,-163.682 -2.047,-196.93c0.21,-46.927 2.726,-46.798 18.817,-90.935c3.673,-10.074 4.33,-14.588 -6.274,-14.329c-4.14,0.101 -8.278,0.383 -12.419,0.358c-4.931,-0.03 -7.493,-2.074 -7.85,-2.173Zm740.745,135.886c-1.313,-8.871 0.296,-10.36 -7.402,-14.767c-5.459,-3.125 -67.624,-23.627 -77.053,-26.566c-22.833,-7.116 -16.834,20.606 -14.848,36.945c1.823,14.999 11.287,14.268 22.751,17.569c5.579,1.606 40.216,11.579 70.221,18.299c11.068,2.479 7.719,-6.977 6.331,-31.48Zm-728.112,-198.184c17.392,0.634 35.244,-9.152 85.326,-16.95c58.016,-9.033 113.871,-44.051 173.683,66.787c40.911,75.812 40.228,212.981 154.672,227.299c26.579,3.325 26.569,-1.979 90.325,-1.603c13.79,0.081 8.286,-6.26 7.684,-6.819c-3.418,-3.178 -96.558,1.807 -176.113,-82.65c-54.503,-57.861 -35.777,-124.796 -91.473,-195.989c-42.883,-54.814 -104.116,-40.631 -113.452,-38.469c-19.122,4.429 -57.294,20.999 -111.149,36.225c-1.558,0.44 -18.51,5.233 -19.253,6.236c-0.283,0.382 -0.018,0.433 -0.248,5.934Zm-205.839,329.669c3.019,0.483 37.8,6.054 38.213,0.219c0.128,-1.807 0.173,-4.124 -1.206,-5.298c-1.04,-0.885 -1.564,2.365 -16.889,-2.491c-8.529,-2.702 -5.78,-7.113 -5.432,-66.579c0.446,-76.268 1.479,-77.704 -1.567,-78.786c-5.744,-2.041 -14.98,1.394 -16.22,9.19c-0.385,2.419 -1.654,136.394 -0.683,139.326c0.146,0.442 0.28,0.327 3.784,4.419Zm44.916,-505.548c-25.412,15.372 -30.298,14.438 -27.07,20.45c1.327,2.471 9.568,8.885 14.646,7.249c2.131,-0.686 74.589,-34.623 77.185,-36.842c3.848,-3.289 7.357,-23.068 1.02,-25.752c-2.164,-0.917 -2.077,0.445 -65.782,34.896Zm-362.148,534.585c-0.861,-1.656 -8.205,-15.785 -12.182,-19.903c-0.991,-1.025 -6.955,-7.2 -15.093,-9.479c-53.834,-15.074 -62.111,145.715 -8.237,156.041c26.05,4.993 59.251,-53.984 35.512,-126.66Zm-34.481,48.624c-0.983,-5.131 -4.663,-19.19 3.199,-16.745c9.316,2.896 5.959,39.766 -3.885,32.712c-1.039,-0.745 -1.851,-1.326 0.685,-15.966Zm4.02,-37.169c1.569,-0.771 1.466,-3.507 3.035,-4.278c3.608,-1.773 17.047,8.541 19.497,33.38c3.898,39.503 -21.296,58.181 -20.881,45.148c0.023,-0.708 0.142,-0.61 5.157,-8.555c1.079,-1.709 8.159,-15.501 7.158,-32.537c-1.085,-18.452 -3.285,-17.958 -13.966,-33.158Zm254.833,-147.423c-1.694,121.385 -1.597,123.467 3.468,125.43c0.656,0.254 29.213,3.622 31.414,1.057c0.735,-0.857 0.861,-2.289 0.482,-3.353c-0.23,-0.646 -1.616,-0.103 -1.93,-0.712c-0.262,-0.507 1.172,-1.116 0.775,-1.527c-3.399,-3.516 -18.125,1.981 -18.094,-14.245c0.225,-116.633 5.91,-124.667 -5.229,-123.452c-1.367,0.149 -7.464,3.173 -8.461,4.213c-1.549,1.616 -2.343,11.567 -2.424,12.589Zm85.855,115.798c-2.267,-2.978 -2.001,-3.054 -4.442,-5.836c-2.712,-3.091 -3.295,-2.032 -8.936,-3.331c-8.496,-1.956 -6.318,-5.521 -5.978,-57.438c0.522,-79.792 1.129,-81.441 -2.161,-82.183c-14.654,-3.305 -14.909,14.785 -14.934,16.569c-0.139,9.844 -1.569,111.425 -1.193,123.051c0.342,10.569 10.256,8.963 24.448,9.915c0.924,0.062 11.351,0.761 11.559,0.716c0.715,-0.156 0.922,-1.308 1.637,-1.464Zm292.596,-403.047c-0.169,4.33 -3.395,25.985 9.126,18.969c9.61,-5.386 7.272,-8.876 8.791,-68.19c1.398,-54.562 4.033,-246.043 7.161,-377.486c0.053,-2.223 1.32,-11.173 -1.485,-14.279c-12.954,-14.346 -9.439,43.455 -14.097,129.158c-2.454,45.151 -4.785,128.317 -5.097,139.479c-1.919,68.467 -3.479,68.305 -4.398,172.35Zm-222.627,254.424c0.169,-14.123 2.412,-29.471 -5.372,-29.446c-1.37,0.004 -11.439,0.036 -14.394,9.276c-0.111,0.346 -1.56,147.713 -0.212,150.927c1.112,2.65 1.903,4.535 35.427,5.933c0.748,0.031 9.973,0.416 7.7,-5.323c-0.665,-1.678 -1.25,-1.165 -19.184,-6.043c-7.848,-2.135 -4.888,-5.857 -3.965,-125.323Zm289.959,-75.769c-10.284,1.335 -57.68,7.488 -82.058,100.35c-34.402,131.044 23.814,305.32 110.998,258.782c64.673,-34.521 93.579,-207.497 34.811,-315.099c-22.449,-41.102 -57.568,-43.595 -63.751,-44.034Zm-15.072,182.421c-0.239,-4.543 1.021,-10.028 -4.992,-28.861c-3.431,-10.747 -16.298,-22.58 -4.777,-25.281c24.198,-5.673 43.446,52.542 20.562,95.039c-9.027,16.764 -24.951,12.041 -23.174,4.488c3.166,-13.456 10.792,-11.511 12.381,-45.386Zm53.558,-28.936c-14.553,-103.463 -61.006,-90.23 -53.245,-100.895c1.181,-1.623 24.564,-6.012 45.187,21.966c45.998,62.403 32.053,202.43 -17.931,231.198c-1.422,0.818 -19.622,11.293 -20.185,3.633c-0.335,-4.555 1.406,-4.947 7.022,-8.785c31.681,-21.648 46.109,-86.402 39.151,-147.118Zm351.343,174.29c69.606,0.082 69.529,0.161 82.054,0.396c1.514,0.028 17.103,0.321 18.685,-3.013c1.51,-3.183 -0.106,-12.634 -10.391,-12.835c-11.491,-0.225 -11.318,0.901 -143.622,3.305c-34.356,0.624 -34.964,-0.004 -36.621,2.419c-8.369,12.24 34.17,9.703 89.895,9.728Zm-63.207,-641.821c1.002,-99.541 4.312,-100.396 -24.338,-217.1c-37.879,-154.297 -40.541,-170.104 -43.066,-185.097c-4.772,-28.333 -33.141,-61.979 -54.101,-57.732c-8.341,1.69 -224.007,133.209 -224.1,133.295c-15.181,14.019 -8.67,37.214 -7.568,174.857c1.003,125.23 1.051,125.125 2.81,250.246c0.191,13.574 -1.431,20.675 11.61,16.909c4.884,-1.41 38.958,-11.25 61.691,-15.241c66.889,-11.744 108.664,-15.115 163.517,68.317c52.587,79.985 65.841,104.909 127.464,107.234c6.547,0.247 6.521,0.709 111.246,30.635c335.524,95.88 335.523,95.832 364.542,104.696c14.767,4.511 23.272,10.423 21.948,-4.877c-0.285,-3.294 -2.122,-24.511 -4.574,-41.074c-5.016,-33.88 -4.026,-33.931 -4.478,-36.868c-9.464,-61.515 -6.972,-61.673 -15.718,-123.204c-3.518,-24.749 -4.229,-24.49 -7.563,-49.311c-8.24,-61.333 -6.054,-62.032 -43.304,-167.797c-44.033,-125.023 -43.498,-125.171 -47.423,-136.005c-7.533,-20.792 -11.197,-18.755 -53.704,-46.079c-13.22,-8.498 -221.884,-140.169 -223.184,-141.017c-11.832,-7.721 -64.58,-40.996 -70.206,-44.545c-55.934,-35.285 -58.972,-36.175 -64.729,-37.862c-30.28,-8.874 -16.33,25.371 8.529,138.62c10.386,47.313 36.52,159.851 37.336,164.051c4.637,23.848 4.876,25.078 -1.135,303.684c-0.609,28.223 1.052,28.02 1.125,41.134c0.078,14.112 -6.628,7.859 -7.096,7.2c-0.254,-0.357 -0.175,-0.407 -2.02,-11.2c-4.218,-24.681 -14.953,-33.995 -17.119,-40.85c-3.233,-10.233 2.576,-110.867 3.606,-185.02Zm-102.248,-248.531c13.314,2.8 33.54,1.195 25.866,10.486c-3.642,4.409 -28.959,-3.042 -28.336,8.287c0.06,1.082 5.615,45.758 7.673,49.379c2.345,4.126 25.959,1.322 26.377,7.835c0.658,10.248 -22.201,0.436 -23.446,12.345c-0.679,6.495 1.44,7.43 -3.389,11.886c-2.497,2.303 -11.077,3.065 -11.887,3.202c-2.252,0.293 -2.205,0.196 -28.181,3.403c-18.383,2.269 -41.193,11.007 -44.545,-6.173c-0.755,-3.868 -17.429,-117.217 -16.8,-122.843c1.448,-12.964 15.385,-8.318 48.706,-6.883c22.627,0.974 38.622,-0.322 41.356,14.987c1.594,8.929 0.379,9.395 3.377,12.713c0.785,0.868 2.445,0.51 3.229,1.378Zm544.466,527.295c-2.57,-43.671 28.375,-36.91 37.681,-19.313c11.934,22.567 -2.004,52.102 -22.125,42.609c-9.909,-4.675 -14.905,-21.151 -15.556,-23.296Zm-210.107,-137.054c-51.997,-19.699 -103.068,-35.849 -116.035,-42.363c-7.045,-3.539 -14.16,-16.724 -9.331,-22.586c5.591,-6.786 17.529,-0.192 22.045,1.398c23.016,8.104 275.183,96.893 287.613,101.548c30.048,11.253 12.448,27.005 11.038,27.521c-8.608,3.149 -72.354,-24.282 -195.33,-65.518Zm-542.339,-174.652c14.58,-7.605 55.72,-28.794 50.975,0.394c-3.084,18.968 -24.858,21.809 -30.613,23.599c-24.772,7.707 -40.801,14.21 -44.347,4.607c-6.014,-16.288 13.706,-22.801 23.985,-28.6Zm401.682,133.004c44.227,21.789 36.913,84.627 9.163,94.091c-56.041,19.113 -77.497,-107.04 -9.163,-94.091Zm139.565,118.554c85.24,30.754 162.451,55.321 167.673,61.247c4.067,4.615 4.099,16.827 -11.377,11.548c-92.802,-31.657 -91.885,-33.784 -184.789,-65.185c-1.919,-0.649 -21.086,-7.127 -18.987,-16.757c1.535,-7.043 9.97,-4.189 10.843,-3.893c18.456,6.245 18.284,6.333 36.638,13.04Zm24.493,-40.606c52.3,20.485 156.041,52.006 160.988,59.618c7.455,11.47 -0.016,18.776 -12.165,14.865c-27.087,-8.719 -181.307,-63.631 -197.048,-69.235c-50.492,-17.978 -51.293,-19.284 -53.743,-23.278c-7.766,-12.658 0.237,-17.173 7.74,-14.939c21.227,6.321 20.585,7.918 94.228,32.969Zm253.127,306.144c-1.355,-16.587 0.209,-21.138 -23.125,-27.74c-35.358,-10.003 -51.346,-20.146 -51.726,-4.99c-0.714,28.46 0.744,31.036 2.061,33.363c2.572,4.546 3.998,2.95 62.546,18.729c1.397,0.377 9.372,3.233 10.095,-7.206c0.28,-4.043 -0.131,-8.114 0.149,-12.157Zm-929.009,-745.281l8.449,-3.555c1.81,-0.759 1.735,-0.608 3.567,-1.365c21.715,-8.975 12.558,-19.395 11.537,-19.804c-4.459,-1.789 -4.261,0.321 -16.227,6.215c-20.214,9.957 -46.464,16.632 -46.328,49.891c0.051,12.475 0.623,152.41 1.401,155.937c1.004,4.549 8.804,8.063 10.705,-4.312c1.086,-7.068 0.155,-120.621 0.069,-131.11c-0.289,-35.283 -0.049,-39.423 26.826,-51.898Z" style="fill:#4c4c4d;"/><path d="M646.295,1091.358c8.324,-1.364 8.322,-1.023 16.097,-4.138c40.956,-16.406 40.177,-18.015 43.732,-19.435c99.068,-39.568 98.62,-40.53 107.258,-43.897c39,-15.203 74.717,-31.514 76.824,-30.609c2.696,1.159 1.756,14.879 1.752,134.302c-10.52,2.063 -10.495,1.197 -21.206,2.06c-14.862,1.197 -4.281,18.462 -12.822,45.977c-6.29,1.906 -27.411,10.564 -28.372,10.866c-7.426,2.33 -46.398,-3.497 -56.831,-1.007c-13.341,3.185 -117.171,40.576 -127.316,44.229c-254.9,91.794 -532.01,184.534 -574.564,200.519l-7.174,3.023c-0.647,-1.406 -2.056,-0.812 -3.008,-6.539c-0.41,-2.467 -0.397,-11.736 -0.396,-12.757c0.091,-65.915 -0.316,-68.244 3.958,-72.046c4.927,-4.384 300.391,-129.431 330.136,-142.777c29.939,-13.433 238.764,-102.548 251.931,-107.771Zm170.098,18.622c0.543,-3.066 5.357,-30.262 -10.675,-37.429c-30.258,-13.525 -27.264,64.903 -0.786,53.28c8.533,-3.746 10.839,-14.323 11.462,-15.851Zm-98.6,8.523c1.753,41.793 27.023,27.972 30.88,16.799c1.071,-3.102 9.314,-26.983 -5.572,-40.633c-1.074,-0.984 -9.357,-8.581 -18.189,0.794c-5.699,6.049 -6.958,21.117 -7.119,23.04Zm75.297,-291.513c-7.257,8.146 -7,8.356 -7.834,8.794c-1.71,0.898 -1.881,-0.185 -3.689,0.552c-1.82,0.742 -3.299,2.158 -5.068,3.016c-4.292,2.08 -4.076,2.174 -8.175,4.36c-57.096,-10.327 -71.508,-26.703 -72.739,0.023c-0.783,17.01 -0.206,182.535 0.074,200.937c0.025,1.621 0.279,18.32 -2.224,20.139c-1.027,0.747 -1.333,0.014 -14.914,5.45c-9.564,3.828 -11.633,5.024 -13.213,5.686c-15.658,6.564 -15.859,5.703 -16.87,6.037c-0.229,-12.545 -0.327,-12.435 0.437,-45.519c4.987,-216.007 -0.595,-232.774 21.497,-240.533c9.555,-3.356 10.393,-3.148 122.718,31.058Z" style="fill:#ec3239;"/></g></svg>